<svg width="38" height="38" viewBox="0 0 38 38" fill="none" xmlns="http://www.w3.org/2000/svg">
<path d="M23.9447 33.2991C23.9763 33.8844 25.7401 34.3511 29.2359 34.6991C29.4574 35.6324 29.4258 36.6368 29.141 37.7125C24.7909 37.6492 21.5165 37.6176 19.3178 37.6176C17.1506 37.6176 13.892 37.6492 9.54196 37.7125C9.03577 36.7792 9.03577 35.7747 9.54196 34.6991C12.9904 34.3511 14.7304 33.9002 14.7621 33.3466C14.9202 28.9649 15.0151 25.0419 15.0468 21.5777L6.19636 6.17841C5.42126 4.8813 3.59423 4.09038 0.715268 3.80564C0.58872 3.31527 0.525447 2.84072 0.525447 2.38198C0.525447 1.89161 0.620357 1.36169 0.810179 0.792229C4.14787 0.918777 8.07876 0.982051 12.6028 0.982051C15.8773 0.982051 18.2975 0.950414 19.8635 0.88714C20.0217 1.42497 20.1008 1.89161 20.1008 2.28707C20.1008 2.74581 20.0217 3.26782 19.8635 3.8531C18.1709 3.97965 17.0004 4.12201 16.3518 4.2802C15.7032 4.43838 15.379 4.68357 15.379 5.01576C15.379 5.11067 17.3088 8.62236 21.1685 15.5508C25.4711 8.4009 27.6225 4.78639 27.6225 4.7073C27.6225 4.54911 27.5275 4.40675 27.3377 4.2802C27.1479 4.15365 26.8869 4.05083 26.5547 3.97174C26.2383 3.89265 25.9378 3.83728 25.6531 3.80564C25.3841 3.77401 25.0678 3.74237 24.7039 3.71073C24.3559 3.66328 24.1503 3.63955 24.087 3.63955C23.8181 2.80117 23.8656 1.85207 24.2294 0.792229C27.14 0.918777 29.3071 0.982051 30.7308 0.982051C32.0595 0.982051 33.9894 0.918777 36.5203 0.792229C36.8842 1.8837 36.8842 2.88817 36.5203 3.80564C34.0843 4.0271 32.4787 4.75475 31.7036 5.98859L23.6837 18.849C23.6837 25.2713 23.7707 30.088 23.9447 33.2991ZM15.7349 33.3941C15.6874 34.5646 13.8525 35.3239 10.2301 35.6719C10.0719 36.0674 10.0719 36.4549 10.2301 36.8346C17.2218 36.708 23.217 36.6922 28.2156 36.7871C28.3422 36.4707 28.3422 36.0832 28.2156 35.6245C22.9639 35.3081 20.3222 34.5646 20.2906 33.3941C20.1324 28.8542 20.0533 25.3346 20.0533 22.8352L30.8969 5.49031C31.8302 3.97174 33.4753 3.10172 35.8322 2.88026C35.9746 2.61135 35.9746 2.23962 35.8322 1.76506C34.0606 1.85997 32.2652 1.90743 30.446 1.90743C28.8009 1.90743 26.9581 1.85997 24.9175 1.76506C24.7751 2.01816 24.7751 2.38989 24.9175 2.88026C27.2428 3.13336 28.4846 3.64746 28.6427 4.42256C28.706 4.72311 28.6111 5.07903 28.358 5.49031L19.7686 19.6795L11.9859 5.79877C11.4323 4.75475 11.5984 4.06665 12.4842 3.73446C13.3858 3.38646 15.5372 3.10172 18.9381 2.88026C19.0647 2.42153 19.0647 2.0498 18.9381 1.76506C14.2717 1.98652 8.45049 1.98652 1.47455 1.76506C1.34801 2.0498 1.34801 2.42153 1.47455 2.88026C4.27442 3.13336 6.141 4.10619 7.07428 5.79877L16.0196 21.3879C15.988 25.1052 15.8931 29.1073 15.7349 33.3941Z" fill="#7854F7"/>
</svg>
