<svg width="126" height="126" viewBox="0 0 126 126" fill="none" xmlns="http://www.w3.org/2000/svg">
<rect width="126" height="126" rx="63" fill="white"/>
<path d="M71.1766 84.1059C71.2229 84.962 73.803 85.6447 78.917 86.1538C79.241 87.519 79.1947 88.9884 78.7782 90.562C72.4146 90.4694 67.6246 90.4231 64.4081 90.4231C61.2379 90.4231 56.471 90.4694 50.1075 90.562C49.367 89.1967 49.367 87.7273 50.1075 86.1538C55.1521 85.6447 57.6975 84.9852 57.7438 84.1753C57.9752 77.7655 58.114 72.0267 58.1603 66.959L45.2134 44.4321C44.0795 42.5346 41.4068 41.3776 37.1953 40.961C37.0102 40.2437 36.9176 39.5495 36.9176 38.8784C36.9176 38.1611 37.0565 37.3859 37.3341 36.5528C42.2167 36.7379 47.967 36.8305 54.5851 36.8305C59.3751 36.8305 62.9156 36.7842 65.2065 36.6917C65.4379 37.4784 65.5536 38.1611 65.5536 38.7396C65.5536 39.4106 65.4379 40.1743 65.2065 41.0304C62.7305 41.2156 61.0181 41.4238 60.0693 41.6552C59.1206 41.8866 58.6462 42.2453 58.6462 42.7313C58.6462 42.8701 61.4693 48.0072 67.1155 58.1426C73.4096 47.6832 76.5567 42.3957 76.5567 42.28C76.5567 42.0486 76.4179 41.8404 76.1402 41.6552C75.8625 41.4701 75.4807 41.3197 74.9947 41.204C74.5319 41.0883 74.0923 41.0073 73.6758 40.961C73.2824 40.9147 72.8196 40.8685 72.2873 40.8222C71.7783 40.7528 71.4774 40.7181 71.3849 40.7181C70.9915 39.4916 71.0609 38.1032 71.5931 36.5528C75.8509 36.7379 79.0211 36.8305 81.1037 36.8305C83.0475 36.8305 85.8706 36.7379 89.573 36.5528C90.1053 38.1495 90.1053 39.6189 89.573 40.961C86.0095 41.285 83.6607 42.3494 82.5269 44.1544L70.7948 62.9673C70.7948 72.3622 70.9221 79.4084 71.1766 84.1059ZM59.1669 84.2447C59.0975 85.9571 56.4132 87.0678 51.1141 87.5769C50.8827 88.1554 50.8827 88.7223 51.1141 89.2777C61.3421 89.0926 70.1122 89.0694 77.4245 89.2083C77.6096 88.7455 77.6096 88.1785 77.4245 87.5075C69.7419 87.0447 65.8775 85.9571 65.8312 84.2447C65.5998 77.6035 65.4841 72.4548 65.4841 68.7986L81.3467 43.4255C82.712 41.204 85.1186 39.9313 88.5664 39.6073C88.7747 39.2139 88.7747 38.6702 88.5664 37.9759C85.9748 38.1148 83.3483 38.1842 80.6872 38.1842C78.2806 38.1842 75.5848 38.1148 72.5997 37.9759C72.3915 38.3462 72.3915 38.89 72.5997 39.6073C76.0013 39.9776 77.8178 40.7296 78.0492 41.8635C78.1418 42.3032 78.003 42.8238 77.6327 43.4255L65.0676 64.1822L53.6827 43.8767C52.8728 42.3494 53.1157 41.3428 54.4116 40.8569C55.7306 40.3478 58.8776 39.9313 63.8528 39.6073C64.0379 38.9363 64.0379 38.3925 63.8528 37.9759C57.0264 38.2999 48.5108 38.2999 38.306 37.9759C38.1209 38.3925 38.1209 38.9363 38.306 39.6073C42.4018 39.9776 45.1324 41.4007 46.4976 43.8767L59.5834 66.6813C59.5371 72.1193 59.3983 77.9737 59.1669 84.2447Z" fill="#7854F7"/>
</svg>
